<?xml version="1.0" standalone="no"?><svg xmlns="http://www.w3.org/2000/svg" viewBox="0 0 1440 320"><path fill="#a2d9ff" fill-opacity="0.5" d="M0,256L40,245.3C80,235,160,213,240,208C320,203,400,213,480,234.7C560,256,640,288,720,298.7C800,309,880,299,960,272C1040,245,1120,203,1200,181.3C1280,160,1360,160,1400,160L1440,160L1440,320L1400,320C1360,320,1280,320,1200,320C1120,320,1040,320,960,320C880,320,800,320,720,320C640,320,560,320,480,320C400,320,320,320,240,320C160,320,80,320,40,320L0,320Z"></path></svg>